<svg id="Capa_1" enable-background="new 0 0 512 512" height="512" viewBox="0 0 512 512" width="512" xmlns="http://www.w3.org/2000/svg"><g><g><path d="m449.738 139.302-116.219-16.888c-5.043-.733-9.403-3.9-11.658-8.47l-51.976-105.313c-1.42-2.877-3.717-5.149-6.143-6.587l-7.224 6.965-8.26-6.965c-2.513 1.438-4.684 3.63-6.143 6.587l-51.975 105.313c-2.255 4.57-6.615 7.737-11.658 8.47l-116.22 16.888c-2.844.413-5.3 1.523-7.305 3.088l2.679 9.622-8.501 4.768c.422 3.23 1.871 6.327 4.546 8.934l84.097 81.975c3.649 3.557 5.315 8.682 4.453 13.705l-19.853 115.75c-.559 3.263-.085 6.322 1.112 8.969l125.304-56.876c4.511-2.371 9.9-2.371 14.411 0l125.304 56.876c1.198-2.646 1.672-5.706 1.112-8.969l-19.853-115.75c-.861-5.023.804-10.148 4.453-13.705l84.097-81.975c2.654-2.587 4.11-5.729 4.546-8.934l-8.392-4.209 2.57-10.18c-2.004-1.566-4.46-2.676-7.304-3.089z" fill="#ffe08c"/><path d="m304.59 494.832-13.428-122.738-27.957-23.698c-4.511-2.372-9.9-2.372-14.411 0l-27.957 23.698-13.427 122.738c-1.003 9.163 6.174 17.168 15.392 17.168h66.397c9.217 0 16.394-8.004 15.391-17.168z" fill="#febd55"/><path d="m289.006 352.38-25.801-22.564c-4.511-2.372-9.9-2.372-14.411 0l-25.801 22.564-2.157 19.715 27.957-14.698c4.511-2.372 9.9-2.372 14.411 0l27.957 14.698z" fill="#f9ab43"/><path d="m457.043 142.39-193.301 63.37v-203.716c-4.748-2.725-10.735-2.725-15.484 0v203.716l-193.301-63.37c-4.366 3.396-6.565 8.991-5.822 14.39l194.261 63.68-120.795 163.148c.221.871.525 1.705.888 2.505l.002-.002h10.052l17.002-14.223 105.455-142.427 105.454 142.427 16.553 14.225 10.501-.002.002.002c.363-.8.666-1.634.888-2.505l-120.794-163.149 194.261-63.68c.743-5.398-1.456-10.993-5.822-14.389z" fill="#febd55"/><g fill="#f9ab43"><path d="m361.453 371.887 1.532 14.224 15.381 8.619c4.435-1.215 8.225-4.38 10.143-8.619z"/><path d="m123.491 386.111c1.918 4.238 5.708 7.404 10.143 8.619l15.381-8.619 1.532-14.224z"/></g><path d="m361.453 371.887-98.248-51.652c-4.511-2.371-9.9-2.371-14.411 0l-98.248 51.652-16.913 22.843c3.532.968 7.474.7 11.211-1.265l103.95-54.65c4.511-2.372 9.9-2.372 14.411 0l103.95 54.65c3.737 1.965 7.678 2.232 11.211 1.265z" fill="#f9d375"/></g></g></svg>